<?xml version="1.0" standalone="no"?>
<!DOCTYPE svg PUBLIC "-//W3C//DTD SVG 20010904//EN"
 "http://www.w3.org/TR/2001/REC-SVG-20010904/DTD/svg10.dtd">
<svg version="1.0" xmlns="http://www.w3.org/2000/svg"
 width="3508.000000pt" height="2480.000000pt" viewBox="0 0 3508.000000 2480.000000"
 preserveAspectRatio="xMidYMid meet">

<g transform="translate(0.000000,2480.000000) scale(0.100000,-0.100000)"
fill="#000000" stroke="none">
<path d="M20651 13670 c-121 -125 -591 -920 -852 -1442 -70 -140 -94 -179
-111 -182 -13 -3 -81 -16 -153 -30 -71 -14 -184 -37 -250 -51 -66 -14 -221
-45 -345 -70 -124 -25 -235 -48 -247 -50 -18 -4 -23 -1 -23 13 0 19 365 751
502 1007 41 77 112 212 158 300 46 88 91 171 102 184 22 29 23 55 2 76 -24 24
-32 14 -136 -186 -50 -96 -135 -259 -190 -364 -55 -104 -196 -383 -313 -620
-228 -458 -220 -446 -239 -353 -10 45 -62 95 -122 118 -101 37 -208 20 -317
-53 -125 -85 -163 -181 -87 -220 30 -16 53 -17 170 -13 74 3 160 10 190 16 30
5 75 13 99 16 l44 7 -7 -44 c-7 -44 -38 -116 -148 -349 -33 -69 -78 -165 -100
-215 -22 -49 -52 -112 -68 -140 -44 -78 -110 -244 -110 -277 0 -44 28 -33 68
27 44 67 271 522 305 610 14 39 42 117 62 175 20 58 51 134 68 169 l32 65 60
12 c33 7 119 24 190 38 72 14 184 37 250 51 258 55 536 107 541 102 3 -3 -13
-44 -35 -92 -23 -48 -41 -89 -41 -91 0 -2 -11 -27 -24 -56 -112 -244 -235
-594 -276 -786 -27 -127 -35 -254 -21 -322 14 -64 59 -127 85 -117 23 9 20 44
-5 57 -133 72 3 588 350 1325 l48 100 139 22 c181 29 385 55 390 50 2 -2 -12
-41 -31 -88 -64 -156 -67 -225 -10 -251 59 -27 165 37 339 203 119 114 137
120 91 28 -74 -144 -121 -319 -110 -401 18 -131 137 -150 295 -47 112 72 209
157 412 361 108 109 202 198 208 198 7 0 9 -13 6 -32 -3 -18 -8 -78 -11 -133
-4 -54 -13 -114 -21 -133 -7 -18 -67 -86 -133 -150 -123 -122 -181 -203 -181
-258 0 -16 5 -35 12 -42 16 -16 73 -15 107 3 74 38 194 218 232 349 16 56 45
80 214 183 158 96 276 152 393 186 49 15 53 15 59 -1 3 -9 21 -56 39 -104 19
-48 34 -102 34 -120 -1 -30 -8 -37 -81 -83 -98 -61 -226 -180 -235 -217 -5
-23 -2 -30 18 -39 78 -35 273 104 335 238 18 40 37 60 79 88 95 63 454 225
500 225 7 0 17 -8 23 -17 7 -13 -3 -41 -39 -112 -66 -131 -92 -211 -88 -275 3
-48 5 -51 32 -54 25 -3 39 7 95 65 36 38 97 117 136 176 69 106 70 107 115
112 146 17 212 29 298 55 53 16 98 27 99 26 2 -1 -19 -52 -46 -112 -64 -144
-88 -221 -74 -235 25 -25 61 2 153 118 222 278 346 411 364 393 5 -5 13 -54
17 -110 11 -142 42 -243 93 -298 36 -40 76 -55 143 -54 97 1 192 51 306 161
115 110 191 209 176 227 -14 17 -38 3 -69 -44 -45 -64 -194 -209 -259 -251
-113 -73 -189 -77 -247 -16 -47 50 -64 112 -74 265 -5 74 -13 147 -19 163 -30
79 -132 -5 -377 -311 -54 -68 -100 -118 -102 -113 -2 6 21 55 51 108 251 452
258 466 221 480 -25 10 -71 -47 -156 -194 l-70 -121 -71 -27 c-135 -51 -320
-88 -361 -72 -14 6 -11 18 22 84 55 110 84 197 89 275 5 61 4 68 -20 92 -14
14 -35 26 -47 26 -54 0 -163 -80 -234 -170 -52 -67 -66 -92 -80 -148 -11 -43
-12 -44 -99 -77 -97 -38 -277 -124 -379 -181 -37 -21 -70 -35 -74 -32 -3 4
-10 21 -14 40 -5 18 -21 67 -35 108 -47 129 -22 195 111 297 73 57 230 141
240 130 11 -10 -14 -35 -101 -100 -101 -76 -112 -91 -79 -104 22 -8 55 12 142
88 92 80 129 136 108 165 -64 86 -454 -148 -505 -303 -13 -39 -17 -43 -90 -69
-129 -46 -357 -165 -513 -268 -14 -9 -28 -13 -31 -9 -2 4 -1 40 4 78 4 39 13
114 19 169 12 110 16 121 75 191 52 63 114 153 126 184 15 37 2 61 -31 61 -57
0 -127 -83 -184 -220 -43 -102 -108 -182 -298 -372 -238 -236 -408 -372 -502
-398 -105 -29 -137 24 -100 165 23 91 88 232 195 425 103 185 120 227 99 240
-22 14 -36 2 -138 -118 -171 -201 -363 -381 -463 -432 -30 -16 -39 -17 -54 -6
-14 10 -16 21 -11 48 9 47 79 188 160 323 37 61 65 117 64 125 -2 8 -13 16
-24 18 -22 3 -54 -28 -110 -110 -26 -37 -38 -46 -70 -51 -22 -3 -77 -12 -124
-20 -245 -42 -361 -60 -365 -55 -16 16 354 676 518 926 358 542 427 662 402
701 -11 18 -24 13 -64 -29z m2527 -1282 c7 -7 12 -23 12 -37 0 -41 -48 -181
-93 -272 -38 -75 -45 -84 -72 -87 -58 -5 -64 11 -27 77 50 92 40 141 -17 87
-15 -13 -41 -26 -60 -30 -32 -6 -33 -5 -26 22 15 64 105 167 194 224 49 31 71
34 89 16z m-4739 -416 c44 -22 71 -59 81 -111 6 -34 4 -43 -9 -50 -33 -17
-239 -45 -332 -46 -147 0 -187 35 -116 102 108 102 285 152 376 105z m4560
-13 c36 -13 36 -12 14 -47 -69 -108 -199 -272 -216 -272 -17 0 3 62 53 167 55
116 85 163 104 163 7 0 27 -5 45 -11z m-779 -218 c0 -31 -156 -168 -226 -197
-74 -31 -24 32 105 132 90 69 121 86 121 65z m-790 -76 c0 -16 -68 -138 -103
-185 -53 -71 -96 -110 -124 -110 -54 0 -7 88 111 208 79 79 116 107 116 87z"/>
<path d="M13850 13680 c-10 -6 -15 -27 -16 -69 0 -50 -8 -75 -53 -167 -135
-281 -585 -977 -910 -1409 -238 -316 -454 -567 -662 -770 -223 -217 -359 -319
-532 -400 -163 -76 -268 -81 -374 -19 -139 81 -222 403 -182 714 49 386 137
702 359 1280 161 419 227 602 240 662 12 53 11 60 -5 78 -10 11 -24 20 -30 20
-64 0 -516 -698 -965 -1490 -185 -326 -305 -532 -321 -549 -9 -9 -19 -23 -22
-31 -3 -8 -6 -10 -6 -3 -3 38 297 669 439 924 93 166 208 351 356 575 52 78
94 149 94 158 0 21 -23 30 -53 22 -48 -13 -318 -423 -511 -776 -132 -242 -315
-640 -372 -808 -51 -152 -51 -222 -1 -222 52 0 96 67 387 580 290 512 848
1413 904 1459 22 18 -12 -79 -156 -444 -320 -813 -402 -1134 -403 -1585 0
-194 2 -223 23 -293 76 -265 234 -388 445 -348 327 61 779 443 1270 1074 391
501 1010 1445 1113 1694 31 76 31 106 -2 132 -30 24 -33 24 -54 11z"/>
<path d="M14674 12689 c-21 -24 -105 -69 -128 -69 -15 0 -28 -24 -19 -34 18
-18 125 15 186 56 35 25 38 68 4 68 -13 0 -32 -9 -43 -21z"/>
<path d="M16666 12574 c-19 -19 -20 -36 -4 -52 32 -32 80 8 58 48 -13 24 -33
26 -54 4z"/>
<path d="M15017 12425 c-17 -25 -62 -96 -99 -158 -103 -173 -124 -198 -250
-298 -269 -214 -428 -292 -509 -249 -66 36 -63 153 6 291 43 85 66 108 133
140 47 23 74 44 107 87 54 69 107 174 99 196 -10 25 -57 19 -100 -12 -78 -57
-233 -246 -261 -318 -13 -35 -234 -107 -370 -121 -98 -9 -99 -8 -49 99 60 126
77 181 83 260 5 61 4 68 -20 92 -14 14 -35 26 -47 26 -65 0 -221 -130 -280
-233 -41 -71 -47 -124 -22 -173 l20 -38 -53 -106 c-63 -126 -87 -202 -83 -267
3 -45 5 -48 32 -51 24 -3 39 7 90 60 34 35 95 113 135 173 43 64 82 113 95
117 11 3 42 6 68 7 58 1 167 24 274 56 45 14 84 25 87 25 3 0 -4 -23 -14 -51
-48 -125 -29 -256 41 -292 103 -54 300 36 588 270 23 19 42 32 42 30 0 -2 -18
-43 -40 -90 -75 -163 -87 -237 -39 -237 26 0 113 88 194 195 102 136 249 307
331 385 94 90 98 85 60 -71 -33 -138 -40 -198 -27 -231 23 -60 96 -26 246 113
165 153 239 207 269 196 22 -9 20 -30 -14 -135 -60 -187 -62 -298 -6 -359 25
-28 41 -36 79 -40 98 -11 253 68 430 220 l57 49 -30 -82 c-33 -90 -48 -200
-31 -242 22 -56 106 -78 182 -48 86 34 235 146 398 299 36 33 66 59 67 58 2
-1 -1 -20 -6 -42 -25 -107 1 -210 61 -241 98 -50 275 29 554 251 144 113 197
164 193 183 -6 31 -28 23 -74 -27 -49 -53 -290 -242 -382 -300 -77 -49 -161
-80 -213 -81 -63 0 -91 30 -97 104 -6 69 16 138 75 236 40 68 49 77 93 93 59
21 140 105 188 195 39 72 39 106 2 110 -61 7 -212 -144 -305 -305 -59 -100
-293 -327 -445 -430 -116 -79 -195 -95 -226 -48 -41 63 29 250 199 534 90 149
102 181 67 181 -28 0 -61 -37 -131 -151 -98 -157 -310 -349 -483 -439 -92 -48
-141 -52 -183 -16 -27 24 -28 28 -27 113 2 74 8 107 43 211 57 171 54 212 -16
212 -58 0 -113 -37 -290 -198 -127 -115 -177 -150 -188 -131 -10 15 2 86 30
182 28 95 33 188 10 207 -35 29 -111 -29 -254 -195 -86 -100 -106 -125 -236
-285 -37 -47 -77 -94 -88 -104 -19 -19 -19 -19 -12 5 12 38 216 407 265 479
38 57 90 160 90 179 0 16 -6 21 -25 21 -19 0 -34 -12 -58 -45z m-1259 -37 c7
-7 12 -23 12 -37 0 -41 -48 -181 -93 -272 -38 -75 -45 -84 -72 -87 -58 -5 -63
10 -27 80 53 104 36 144 -29 70 -19 -20 -42 -48 -51 -62 -15 -21 -19 -23 -28
-10 -37 53 61 209 182 290 63 42 86 48 106 28z m671 -50 c-25 -50 -91 -129
-119 -143 -50 -26 -36 3 41 88 70 77 100 98 78 55z m2810 0 c-14 -27 -78 -108
-99 -126 -8 -7 -28 -19 -43 -28 -37 -20 -30 -7 38 72 83 95 132 134 104 82z
m-3643 -389 c15 -12 12 -18 -71 -134 -61 -86 -137 -175 -149 -175 -16 0 4 64
54 167 69 146 85 166 123 159 17 -3 36 -11 43 -17z"/>
</g>
</svg>
